<svg width="120" height="120" viewBox="0 0 120 120" xmlns="http://www.w3.org/2000/svg"><path fill-rule="evenodd" d="M57.06 19.1C53.76 14.12 48.49 12 45 12h-2v8.85a14.02 14.02 0 0 0-8.83-.22 16.5 16.5 0 0 0-7.7 5.09l-1.67 2 2.36 1.1 10.38 4.82a20.06 20.06 0 0 0-7.03 5.03 16.18 16.18 0 0 0-4.16 13.04 19.17 19.17 0 0 0 1.88 6.22l1.19 2.12 1.84-1.5 10.7-8.68C35.7 69.32 35.03 88.94 35 105H22v4h80v-4H89.79l-2.1-7H94v-4H64.24l-5.45-10.9-3.58 1.8 6 12 .55 1.1h3.55l-2.1 7H50l-.05-6.25c-.13-15.82-.26-31.57 4.03-46.48l4.12 12.36.7 2.1 2.02-.9c2.77-1.25 4.8-2.9 6.16-4.89A11.83 11.83 0 0 0 69 54.57c.1-2.8-.65-5.62-1.75-8.18l.34.07 12 2.5 2.41.5V47c0-2.48-.55-6.18-2.4-9.42a12.66 12.66 0 0 0-10.45-6.57c-3.97-.31-7 .66-9.25 1.9.66-5.87-.59-10.43-2.84-13.82ZM44.57 42.57c.63-1.58 1.3-3.15 2.02-4.73l-3.77-1.75c-2.8.68-6.44 2-9.33 5.23a12.19 12.19 0 0 0-3.16 9.9c.1.95.3 1.8.51 2.5l13.73-11.15Zm16.57 18.53L56.1 45.96l.07-.17.01.01.52-1.34.1-.25 5.48 1.14c1.66 2.9 2.83 6.17 2.73 9.08a7.83 7.83 0 0 1-1.32 4.25 9.02 9.02 0 0 1-2.54 2.43ZM45.6 32.98a21 21 0 0 1-2.46-7.73 10.22 10.22 0 0 0-7.82-.8 12.23 12.23 0 0 0-3.82 1.97l14.1 6.56ZM39 105c.06-19.41 1.02-43.35 11.38-65.81l2.83 3.23c-7.6 18.14-7.43 37.72-7.26 56.42L46 105h-7Zm29.4-62.46-10.2-2.13c.2-.6.38-1.2.54-1.77 1.95-1.68 4.9-4.05 10.1-3.65a8.67 8.67 0 0 1 7.29 4.57c.9 1.57 1.4 3.34 1.66 4.94l-9.38-1.96ZM54.75 38.1l-3.53-4.03A17 17 0 0 1 47 22.86v-6.55c2.15.61 4.84 2.16 6.73 5 2.2 3.3 3.47 8.63 1 16.78ZM85.6 105l-2.1-7H69.5l-2.1 7H85.6Z" fill="#212529"/></svg>